<svg width="41" height="40" viewBox="0 0 41 40" fill="none" xmlns="http://www.w3.org/2000/svg">
<mask id="mask0_25_129" style="mask-type:alpha" maskUnits="userSpaceOnUse" x="0" y="0" width="41" height="40">
<rect x="0.410675" width="40" height="40" fill="#D9D9D9"/>
</mask>
<g mask="url(#mask0_25_129)">
<path d="M18.6607 30.5833L12.744 24.6666L15.1607 22.25L18.6607 25.75L25.6607 18.75L28.0773 21.1666L18.6607 30.5833ZM8.74401 36.6666C7.82734 36.6666 7.04262 36.3403 6.38984 35.6875C5.73706 35.0347 5.41068 34.25 5.41068 33.3333V9.99998C5.41068 9.08331 5.73706 8.29859 6.38984 7.64581C7.04262 6.99304 7.82734 6.66665 8.74401 6.66665H10.4107V3.33331H13.744V6.66665H27.0773V3.33331H30.4107V6.66665H32.0773C32.994 6.66665 33.7787 6.99304 34.4315 7.64581C35.0843 8.29859 35.4107 9.08331 35.4107 9.99998V33.3333C35.4107 34.25 35.0843 35.0347 34.4315 35.6875C33.7787 36.3403 32.994 36.6666 32.0773 36.6666H8.74401ZM8.74401 33.3333H32.0773V16.6666H8.74401V33.3333ZM8.74401 13.3333H32.0773V9.99998H8.74401V13.3333Z" fill="#F3B335"/>
</g>
</svg>
