<svg width="41" height="40" viewBox="0 0 41 40" fill="none" xmlns="http://www.w3.org/2000/svg">
<mask id="mask0_25_122" style="mask-type:alpha" maskUnits="userSpaceOnUse" x="0" y="0" width="41" height="40">
<rect x="0.410675" width="40" height="40" fill="#D9D9D9"/>
</mask>
<g mask="url(#mask0_25_122)">
<path d="M7.07652 35.0001V19.3751L4.07652 21.6667L2.07652 19.0001L7.07652 15.1667V10.0001H10.4099V12.6251L20.4099 5.00008L38.7432 19.0001L36.7432 21.6251L33.7432 19.3751V35.0001H7.07652ZM10.4099 31.6667H18.7432V25.0001H22.0765V31.6667H30.4099V16.8334L20.4099 9.20841L10.4099 16.8334V31.6667ZM7.07652 8.33341C7.07652 6.94453 7.56263 5.76397 8.53486 4.79175C9.50708 3.81953 10.6876 3.33341 12.0765 3.33341C12.5487 3.33341 12.9446 3.17369 13.264 2.85425C13.5835 2.5348 13.7432 2.13897 13.7432 1.66675H17.0765C17.0765 3.05564 16.5904 4.23619 15.6182 5.20841C14.646 6.18064 13.4654 6.66675 12.0765 6.66675C11.6043 6.66675 11.2085 6.82647 10.889 7.14592C10.5696 7.46536 10.4099 7.86119 10.4099 8.33341H7.07652Z" fill="#F3B335"/>
</g>
</svg>
