<svg width="32" height="32" viewBox="0 0 32 32" fill="none" xmlns="http://www.w3.org/2000/svg">
<mask id="mask0_25_836" style="mask-type:alpha" maskUnits="userSpaceOnUse" x="0" y="0" width="32" height="32">
<rect width="32" height="32" fill="#D9D9D9"/>
</mask>
<g mask="url(#mask0_25_836)">
<path d="M10.4667 25.5C8.15556 24.4333 6.27223 22.8222 4.81667 20.6667C3.36112 18.5111 2.63334 16.0778 2.63334 13.3667C2.63334 12.7889 2.66667 12.2222 2.73334 11.6667C2.80001 11.1111 2.90001 10.5667 3.03334 10.0333L1.50001 10.9333L0.166672 8.63333L6.53334 4.96667L10.2 11.3L7.86667 12.6333L6.06667 9.5C5.82223 10.1 5.63889 10.7222 5.51667 11.3667C5.39445 12.0111 5.33334 12.6778 5.33334 13.3667C5.33334 15.5222 5.92223 17.4833 7.10001 19.25C8.27778 21.0167 9.84445 22.3222 11.8 23.1667L10.4667 25.5ZM20.6667 9.33333V6.66667H24.3C23.2778 5.4 22.0444 4.41667 20.6 3.71667C19.1556 3.01667 17.6222 2.66667 16 2.66667C14.7778 2.66667 13.6222 2.85556 12.5333 3.23333C11.4444 3.61111 10.4444 4.14444 9.53334 4.83333L8.2 2.5C9.31112 1.72222 10.5167 1.11111 11.8167 0.666666C13.1167 0.222222 14.5 -2.38419e-07 15.9667 -2.38419e-07C17.7222 -2.38419e-07 19.4056 0.327778 21.0167 0.983333C22.6278 1.63889 24.0667 2.58889 25.3333 3.83333V2H28V9.33333H20.6667ZM19.8 29.3333L13.4333 25.6667L17.1 19.3333L19.4 20.6667L17.5 23.9333C20.1222 23.5556 22.3056 22.3722 24.05 20.3833C25.7944 18.3944 26.6667 16.0556 26.6667 13.3667C26.6667 13.1222 26.6611 12.8889 26.65 12.6667C26.6389 12.4444 26.6111 12.2222 26.5667 12H29.2667C29.2889 12.2222 29.3056 12.4389 29.3167 12.65C29.3278 12.8611 29.3333 13.0889 29.3333 13.3333C29.3333 16.3333 28.4389 19.0167 26.65 21.3833C24.8611 23.75 22.5333 25.3444 19.6667 26.1667L21.1333 27.0333L19.8 29.3333Z" fill="#5F5D5D"/>
</g>
</svg>
