<svg width="32" height="32" viewBox="0 0 32 32" fill="none" xmlns="http://www.w3.org/2000/svg">
<mask id="mask0_25_108" style="mask-type:alpha" maskUnits="userSpaceOnUse" x="0" y="0" width="32" height="32">
<rect width="32" height="32" fill="#D9D9D9"/>
</mask>
<g mask="url(#mask0_25_108)">
<path d="M7.2 26.1335C6.2 25.1335 5.41667 23.9779 4.85 22.6668C4.28333 21.3557 4 20.0002 4 18.6002C4 17.2002 4.26667 15.8168 4.8 14.4502C5.33333 13.0835 6.2 11.8002 7.4 10.6002C8.17778 9.82238 9.13889 9.15571 10.2833 8.60016C11.4278 8.0446 12.7833 7.60571 14.35 7.28349C15.9167 6.96127 17.7056 6.76682 19.7167 6.70016C21.7278 6.63349 23.9778 6.71127 26.4667 6.93349C26.6444 9.28904 26.7 11.4557 26.6333 13.4335C26.5667 15.4113 26.3833 17.1946 26.0833 18.7835C25.7833 20.3724 25.3611 21.7613 24.8167 22.9502C24.2722 24.139 23.6 25.1335 22.8 25.9335C21.6222 27.1113 20.3722 27.9724 19.05 28.5168C17.7278 29.0613 16.3778 29.3335 15 29.3335C13.5556 29.3335 12.1444 29.0502 10.7667 28.4835C9.38889 27.9168 8.2 27.1335 7.2 26.1335ZM10.9333 25.6002C11.5778 25.9779 12.2389 26.2502 12.9167 26.4168C13.5944 26.5835 14.2889 26.6668 15 26.6668C16.0222 26.6668 17.0333 26.4613 18.0333 26.0502C19.0333 25.639 19.9889 24.9779 20.9 24.0668C21.3 23.6668 21.7056 23.1057 22.1167 22.3835C22.5278 21.6613 22.8833 20.7168 23.1833 19.5502C23.4833 18.3835 23.7111 16.9724 23.8667 15.3168C24.0222 13.6613 24.0444 11.689 23.9333 9.40016C22.8444 9.35571 21.6167 9.33904 20.25 9.35015C18.8833 9.36127 17.5222 9.46682 16.1667 9.66682C14.8111 9.86682 13.5222 10.189 12.3 10.6335C11.0778 11.0779 10.0778 11.689 9.3 12.4668C8.3 13.4668 7.61111 14.4557 7.23333 15.4335C6.85556 16.4113 6.66667 17.3557 6.66667 18.2668C6.66667 19.5779 6.91667 20.7279 7.41667 21.7168C7.91667 22.7057 8.35556 23.4002 8.73333 23.8002C9.66667 22.0224 10.9 20.3168 12.4333 18.6835C13.9667 17.0502 15.7556 15.7113 17.8 14.6668C16.2 16.0668 14.8056 17.6502 13.6167 19.4168C12.4278 21.1835 11.5333 23.2446 10.9333 25.6002Z" fill="#5F5D5D"/>
</g>
</svg>
