<svg width="533" height="510" viewBox="0 0 533 510" fill="none" xmlns="http://www.w3.org/2000/svg">
<path d="M0.621461 0H16.6215V160H0.621461V0Z" fill="#F2B334"/>
<path d="M160.621 7.31161e-06V16L0.62146 16L0.621461 0L160.621 7.31161e-06Z" fill="#F2B334"/>
<path d="M532.621 6.99382e-07L532.621 16L372.621 16L372.621 -6.29444e-06L532.621 6.99382e-07Z" fill="#F2B334"/>
<path d="M532.621 160L516.621 160L516.621 -6.99382e-07L532.621 6.99382e-07L532.621 160Z" fill="#F2B334"/>
<path d="M532.621 510L516.621 510L516.621 350L532.621 350L532.621 510Z" fill="#F2B334"/>
<path d="M372.621 510L372.621 494L532.621 494L532.621 510L372.621 510Z" fill="#F2B334"/>
<path d="M0.62146 510L0.621462 494L160.621 494L160.621 510L0.62146 510Z" fill="#F2B334"/>
<path d="M0.621488 350L16.6215 350L16.6215 510L0.62146 510L0.621488 350Z" fill="#F2B334"/>
</svg>
